<svg width="20" height="22" viewBox="0 0 20 22" fill="none" xmlns="http://www.w3.org/2000/svg">
<path fill-rule="evenodd" clip-rule="evenodd" d="M9.2085 9.09533C10.0939 8.58088 10.2563 7.19581 9.57112 6.00162C8.886 4.80744 4.98342 1.11877 4.71984 1.27189C4.45626 1.425 5.67951 6.6703 6.36468 7.86448C7.04986 9.05867 8.32303 9.60973 9.2085 9.09533ZM14.1941 17.6318C14.9027 17.2202 15.7533 17.0599 16.57 17.0101C17.0868 16.9787 17.6045 16.8291 18.0835 16.5509C19.7331 15.5925 20.2982 13.4699 19.3458 11.81C18.3935 10.15 16.2841 9.58133 14.6346 10.5397C14.3013 10.7332 13.8677 10.7093 13.5565 10.4817C12.4881 9.70002 11.0197 9.57528 9.80198 10.2828C8.59617 10.9833 7.96978 12.3058 8.09198 13.6151C8.13032 14.026 7.91798 14.4418 7.56281 14.6482C5.91323 15.6066 5.34801 17.7291 6.30042 19.3891C7.25278 21.0491 9.36211 21.6178 11.0117 20.6594C11.4311 20.4158 11.7803 20.0969 12.0524 19.7295C12.6414 18.9342 13.3405 18.1278 14.1941 17.6318ZM13.401 4.91905C14.1087 6.15266 14.063 7.51255 13.2989 7.95645C12.5347 8.40045 11.3415 7.76033 10.6337 6.52677C10.3967 6.11366 10.3211 5.55387 10.236 4.925C10.0673 3.67612 9.86161 2.15504 8.28211 0.970287C9.49968 0.262915 12.6932 3.68551 13.401 4.91905ZM6.20517 12.0778C5.42887 12.5288 4.22587 11.8944 3.51806 10.6608C2.81034 9.4273 1.47624 4.92434 2.71312 4.20575C2.93226 6.18087 4.14647 7.11598 5.1434 7.8838C5.64534 8.27033 6.0922 8.61448 6.32925 9.02759C7.03696 10.2612 6.98142 11.6268 6.20517 12.0778ZM17.5306 5.51773C17.9182 6.59637 17.6351 7.73652 16.8983 8.06422C16.1615 8.39197 15.25 7.7832 14.8624 6.70456C14.7326 6.3433 14.7679 5.86841 14.8075 5.33492C14.8862 4.27536 14.982 2.98482 13.8359 1.89546C15.0099 1.37326 17.143 4.43905 17.5306 5.51773ZM4.35731 15.3501C3.70636 15.8287 2.58312 15.5057 1.84861 14.6286C1.1141 13.7515 -0.457124 10.3592 0.580164 9.59652C0.944134 11.1403 2.10306 11.7019 3.05456 12.1629C3.53367 12.395 3.96014 12.6016 4.20614 12.8953C4.94062 13.7724 5.00836 14.8715 4.35731 15.3501Z" fill="url(#paint0_linear_7472_5581)"/>
<defs>
<linearGradient id="paint0_linear_7472_5581" x1="4.65993" y1="1.30669" x2="14.669" y2="18.5346" gradientUnits="userSpaceOnUse">
<stop offset="0.427083" stop-color="#E8006F"/>
<stop offset="0.739583" stop-color="#AC59FF"/>
</linearGradient>
</defs>
</svg>
